<svg width="74" height="66" viewBox="0 0 74 66" fill="none" xmlns="http://www.w3.org/2000/svg">
<path d="M0.885135 49.9678C-0.680458 44.2219 -0.0086577 34.3407 1.64861 28.5373C5.31658 15.6924 12.2884 8.02691 24.292 2.16514C29.9968 -0.620772 41.6272 -2.0956 43.4593 6.5642C43.9332 8.80427 42.9527 11.9278 44.1322 13.8902C45.5613 16.2672 49.4533 16.1632 52.1865 15.692C55.8893 15.0536 59.9939 13.8815 63.8463 14.7837C71.5254 16.5824 73.994 24.3109 72.6883 31.2642C71.927 35.3173 71.7494 39.7761 67.0044 46.0926C62.1192 52.6193 52.5683 59.3815 45.1555 62.5435C37.9114 65.6457 28.1552 66.5106 21.782 65.6918C15.409 64.873 8.67779 62.8698 4.73084 57.7995C2.90706 55.4567 1.65525 52.7944 0.885135 49.9678Z" fill="#FFB800"/>
<path d="M51.5389 61.221H22.6891V19.9846H51.5389V61.221Z" fill="white"/>
<path d="M51.5389 61.221H22.6891V19.9846H51.5389V61.221Z" stroke="#192424" stroke-miterlimit="10" stroke-linecap="round"/>
<path d="M49.536 59.218H20.6862V17.9816H49.536V59.218Z" fill="white"/>
<path d="M49.536 59.218H20.6862V17.9816H49.536V59.218Z" stroke="#192424" stroke-miterlimit="10" stroke-linecap="round"/>
<path d="M47.463 57.1451H18.6133V15.9089H47.463V57.1451Z" fill="white"/>
<path d="M47.463 57.1451H18.6133V15.9089H47.463V57.1451Z" stroke="#192424" stroke-miterlimit="10" stroke-linecap="round"/>
<path d="M23.2538 41.9337H29.604V52.5045H23.2538V41.9337Z" stroke="#192424" stroke-miterlimit="10"/>
<path d="M29.6041 41.9337H35.9543V52.5045H29.6041V41.9337Z" stroke="#192424" stroke-miterlimit="10"/>
<path d="M35.9542 41.9337H42.3044V52.5045H35.9542V41.9337Z" stroke="#192424" stroke-miterlimit="10"/>
<path d="M27.5906 37.2746H29.759L29.7356 30.3356H27.5672L27.5906 37.2746Z" fill="#FFB800"/>
<path d="M23.2538 37.2745H25.4222L25.3989 21.6522H23.2304L23.2538 37.2745Z" fill="#FFB800"/>
<path d="M36.2643 37.2745H38.4326L38.4344 29.1036H36.2661L36.2643 37.2745Z" fill="#FFB800"/>
<path d="M31.8833 37.2624L34.0515 37.2862L34.1478 24.95L31.9796 24.9262L31.8833 37.2624Z" fill="#FFB800"/>
<path d="M42.7506 23.9257H40.5823L40.601 37.2746H42.7693L42.7506 23.9257Z" fill="#FFB800"/>
<path d="M23.2539 47.21H42.7509" stroke="#192424" stroke-miterlimit="10"/>
<path d="M23.2539 44.5626H42.7509" stroke="#192424" stroke-miterlimit="10"/>
<path d="M23.2539 49.8573H42.7509" stroke="#192424" stroke-miterlimit="10"/>
<path d="M72.3637 63.044H54.7113C54.095 63.044 53.5953 62.5443 53.5953 61.928V32.3448C53.5953 31.7284 54.095 31.2288 54.7113 31.2288H72.3637C72.9801 31.2288 73.4798 31.7284 73.4798 32.3448V61.928C73.4798 62.5443 72.9801 63.044 72.3637 63.044Z" fill="#192424"/>
<path d="M70.497 38.1883H56.5779V34.2113H70.497V38.1883Z" fill="#FFB800"/>
<path d="M58.81 42.5422H57.136C56.8279 42.5422 56.578 42.2925 56.578 41.9842V40.7555C56.578 40.4474 56.8279 40.1975 57.136 40.1975H58.81C59.1183 40.1975 59.368 40.4474 59.368 40.7555V41.9842C59.368 42.2925 59.1183 42.5422 58.81 42.5422Z" fill="#F5DACD"/>
<path d="M69.9391 42.5422H68.2651C67.9569 42.5422 67.7071 42.2925 67.7071 41.9842V40.7555C67.7071 40.4474 67.9569 40.1975 68.2651 40.1975H69.9391C70.2472 40.1975 70.4971 40.4474 70.4971 40.7555V41.9842C70.4971 42.2925 70.2472 42.5422 69.9391 42.5422Z" fill="#F5DACD"/>
<path d="M66.2294 42.5422H64.5554C64.2471 42.5422 63.9973 42.2925 63.9973 41.9842V40.7555C63.9973 40.4474 64.2471 40.1975 64.5554 40.1975H66.2294C66.5376 40.1975 66.7874 40.4474 66.7874 40.7555V41.9842C66.7874 42.2925 66.5376 42.5422 66.2294 42.5422Z" fill="#F5DACD"/>
<path d="M62.5198 42.5422H60.8458C60.5375 42.5422 60.2878 42.2925 60.2878 41.9842V40.7555C60.2878 40.4474 60.5375 40.1975 60.8458 40.1975H62.5198C62.8279 40.1975 63.0778 40.4474 63.0778 40.7555V41.9842C63.0778 42.2925 62.8279 42.5422 62.5198 42.5422Z" fill="#FFB800"/>
<path d="M58.81 47.324H57.136C56.8279 47.324 56.578 47.0742 56.578 46.766V45.5373C56.578 45.2291 56.8279 44.9792 57.136 44.9792H58.81C59.1183 44.9792 59.368 45.2291 59.368 45.5373V46.766C59.368 47.0742 59.1183 47.324 58.81 47.324Z" fill="white"/>
<path d="M69.9391 47.324H68.2651C67.9569 47.324 67.7071 47.0742 67.7071 46.766V45.5373C67.7071 45.2291 67.9569 44.9792 68.2651 44.9792H69.9391C70.2472 44.9792 70.4971 45.2291 70.4971 45.5373V46.766C70.4971 47.0742 70.2472 47.324 69.9391 47.324Z" fill="#FFB800"/>
<path d="M66.2294 47.324H64.5554C64.2471 47.324 63.9973 47.0742 63.9973 46.766V45.5373C63.9973 45.2291 64.2471 44.9792 64.5554 44.9792H66.2294C66.5376 44.9792 66.7874 45.2291 66.7874 45.5373V46.766C66.7874 47.0742 66.5376 47.324 66.2294 47.324Z" fill="#FFB800"/>
<path d="M62.5198 47.324H60.8458C60.5375 47.324 60.2878 47.0742 60.2878 46.766V45.5373C60.2878 45.2291 60.5375 44.9792 60.8458 44.9792H62.5198C62.8279 44.9792 63.0778 45.2291 63.0778 45.5373V46.766C63.0778 47.0742 62.8279 47.324 62.5198 47.324Z" fill="#FFB800"/>
<path d="M58.81 53.687H57.136C56.8279 53.687 56.578 53.4371 56.578 53.129V51.9003C56.578 51.5923 56.8279 51.3423 57.136 51.3423H58.81C59.1183 51.3423 59.368 51.5923 59.368 51.9003V53.129C59.368 53.4371 59.1183 53.687 58.81 53.687Z" fill="#FFB800"/>
<path d="M69.9391 53.687H68.2651C67.9569 53.687 67.7071 53.4371 67.7071 53.129V51.9003C67.7071 51.5923 67.9569 51.3423 68.2651 51.3423H69.9391C70.2472 51.3423 70.4971 51.5923 70.4971 51.9003V53.129C70.4971 53.4371 70.2472 53.687 69.9391 53.687Z" fill="#FFB800"/>
<path d="M66.2294 53.687H64.5554C64.2471 53.687 63.9973 53.4371 63.9973 53.129V51.9003C63.9973 51.5923 64.2471 51.3423 64.5554 51.3423H66.2294C66.5376 51.3423 66.7874 51.5923 66.7874 51.9003V53.129C66.7874 53.4371 66.5376 53.687 66.2294 53.687Z" fill="#FFB800"/>
<path d="M62.5198 53.687H60.8458C60.5375 53.687 60.2878 53.4371 60.2878 53.129V51.9003C60.2878 51.5923 60.5375 51.3423 60.8458 51.3423H62.5198C62.8279 51.3423 63.0778 51.5923 63.0778 51.9003V53.129C63.0778 53.4371 62.8279 53.687 62.5198 53.687Z" fill="#FFB800"/>
<path d="M58.81 56.8685H57.136C56.8279 56.8685 56.578 56.6187 56.578 56.3105V55.0818C56.578 54.7738 56.8279 54.5238 57.136 54.5238H58.81C59.1183 54.5238 59.368 54.7738 59.368 55.0818V56.3105C59.368 56.6187 59.1183 56.8685 58.81 56.8685Z" fill="#FFB800"/>
<path d="M69.9391 56.8685H68.2651C67.9569 56.8685 67.7071 56.6187 67.7071 56.3105V55.0818C67.7071 54.7738 67.9569 54.5238 68.2651 54.5238H69.9391C70.2472 54.5238 70.4971 54.7738 70.4971 55.0818V56.3105C70.4971 56.6187 70.2472 56.8685 69.9391 56.8685Z" fill="#FFB800"/>
<path d="M66.2294 56.8685H64.5554C64.2471 56.8685 63.9973 56.6187 63.9973 56.3105V55.0818C63.9973 54.7738 64.2471 54.5238 64.5554 54.5238H66.2294C66.5376 54.5238 66.7874 54.7738 66.7874 55.0818V56.3105C66.7874 56.6187 66.5376 56.8685 66.2294 56.8685Z" fill="#FFB800"/>
<path d="M62.5198 56.8685H60.8458C60.5375 56.8685 60.2878 56.6187 60.2878 56.3105V55.0818C60.2878 54.7738 60.5375 54.5238 60.8458 54.5238H62.5198C62.8279 54.5238 63.0778 54.7738 63.0778 55.0818V56.3105C63.0778 56.6187 62.8279 56.8685 62.5198 56.8685Z" fill="#FFB800"/>
<path d="M58.81 60.0501H57.136C56.8279 60.0501 56.578 59.8003 56.578 59.4921V58.2633C56.578 57.9552 56.8279 57.7053 57.136 57.7053H58.81C59.1183 57.7053 59.368 57.9552 59.368 58.2633V59.4921C59.368 59.8003 59.1183 60.0501 58.81 60.0501Z" fill="#FFB800"/>
<path d="M69.9391 60.0501H68.2651C67.9569 60.0501 67.7071 59.8003 67.7071 59.4921V58.2633C67.7071 57.9552 67.9569 57.7053 68.2651 57.7053H69.9391C70.2472 57.7053 70.4971 57.9552 70.4971 58.2633V59.4921C70.4971 59.8003 70.2472 60.0501 69.9391 60.0501Z" fill="#FFB800"/>
<path d="M66.2294 60.0501H64.5554C64.2471 60.0501 63.9973 59.8003 63.9973 59.4921V58.2633C63.9973 57.9552 64.2471 57.7053 64.5554 57.7053H66.2294C66.5376 57.7053 66.7874 57.9552 66.7874 58.2633V59.4921C66.7874 59.8003 66.5376 60.0501 66.2294 60.0501Z" fill="#FFB800"/>
<path d="M62.5198 60.0501H60.8458C60.5375 60.0501 60.2878 59.8003 60.2878 59.4921V58.2633C60.2878 57.9552 60.5375 57.7053 60.8458 57.7053H62.5198C62.8279 57.7053 63.0778 57.9552 63.0778 58.2633V59.4921C63.0778 59.8003 62.8279 60.0501 62.5198 60.0501Z" fill="#FFB800"/>
<path d="M58.81 50.5054H57.136C56.8279 50.5054 56.578 50.2556 56.578 49.9474V48.7187C56.578 48.4105 56.8279 48.1606 57.136 48.1606H58.81C59.1183 48.1606 59.368 48.4105 59.368 48.7187V49.9474C59.368 50.2556 59.1183 50.5054 58.81 50.5054Z" fill="#FFB800"/>
<path d="M69.9391 50.5054H68.2651C67.9569 50.5054 67.7071 50.2556 67.7071 49.9474V48.7187C67.7071 48.4105 67.9569 48.1606 68.2651 48.1606H69.9391C70.2472 48.1606 70.4971 48.4105 70.4971 48.7187V49.9474C70.4971 50.2556 70.2472 50.5054 69.9391 50.5054Z" fill="#FFB800"/>
<path d="M66.2294 50.5054H64.5554C64.2471 50.5054 63.9973 50.2556 63.9973 49.9474V48.7187C63.9973 48.4105 64.2471 48.1606 64.5554 48.1606H66.2294C66.5376 48.1606 66.7874 48.4105 66.7874 48.7187V49.9474C66.7874 50.2556 66.5376 50.5054 66.2294 50.5054Z" fill="#FFB800"/>
<path d="M62.5198 50.5054H60.8458C60.5375 50.5054 60.2878 50.2556 60.2878 49.9474V48.7187C60.2878 48.4105 60.5375 48.1606 60.8458 48.1606H62.5198C62.8279 48.1606 63.0778 48.4105 63.0778 48.7187V49.9474C63.0778 50.2556 62.8279 50.5054 62.5198 50.5054Z" fill="#FFB800"/>
</svg>
